HIERARCHY
ROOT hip
{
  OFFSET 0 0 0
  CHANNELS 6 Xposition Yposition Zposition Zrotation Yrotation Xrotation
  JOINT abdomen
  {
    OFFSET 0 20.6881 -0.73152
    CHANNELS 3 Zrotation Xrotation Yrotation
    JOINT chest
    {
      OFFSET 0 11.7043 -0.48768
      CHANNELS 3 Zrotation Xrotation Yrotation
      JOINT neck
      {
        OFFSET 0 22.1894 -2.19456
        CHANNELS 3 Zrotation Xrotation Yrotation
        JOINT head
        {
          OFFSET -0.24384 7.07133 1.2192
          CHANNELS 3 Zrotation Xrotation Yrotation
          JOINT leftEye
          {
            OFFSET 4.14528 8.04674 8.04672
            CHANNELS 3 Zrotation Xrotation Yrotation
            End Site
            {
              OFFSET 1 0 0
            }
          }
          JOINT rightEye
          {
            OFFSET -3.6576 8.04674 8.04672
            CHANNELS 3 Zrotation Xrotation Yrotation
            End Site
            {
              OFFSET 1 0 0
            }
          }
        }
      }
      JOINT rCollar
      {
        OFFSET -2.68224 19.2634 -4.8768
        CHANNELS 3 Zrotation Xrotation Yrotation
        JOINT rShldr
        {
          OFFSET -8.77824 -1.95073 1.46304
          CHANNELS 3 Zrotation Xrotation Yrotation
          JOINT rForeArm
          {
            OFFSET -28.1742 -1.7115 0.48768
            CHANNELS 3 Zrotation Xrotation Yrotation
            JOINT rHand
            {
              OFFSET -22.5879 0.773209 7.07136
              CHANNELS 3 Zrotation Xrotation Yrotation
              JOINT rThumb1
              {
                OFFSET -1.2192 -0.487915 3.41376
                CHANNELS 3 Zrotation Xrotation Yrotation
                JOINT rThumb2
                {
                  OFFSET -3.37035 -0.52449 3.41376
                  CHANNELS 3 Zrotation Xrotation Yrotation
                  End Site
                  {
                    OFFSET -1.78271 -1.18214 1.43049
                  }
                }
              }
              JOINT rIndex1
              {
                OFFSET -7.75947 0.938293 5.60832
                CHANNELS 3 Zrotation Xrotation Yrotation
                JOINT rIndex2
                {
                  OFFSET -2.54057 -0.884171 1.56538
                  CHANNELS 3 Zrotation Xrotation Yrotation
                  End Site
                  {
                    OFFSET -1.62519 -0.234802 1.16502
                  }
                }
              }
              JOINT rMid1
              {
                OFFSET -8.24714 1.18213 3.41376
                CHANNELS 3 Zrotation Xrotation Yrotation
                JOINT rMid2
                {
                  OFFSET -3.10165 -0.590103 1.0647
                  CHANNELS 3 Zrotation Xrotation Yrotation
                  End Site
                  {
                    OFFSET -2.48547 -0.328903 0.83742
                  }
                }
              }
              JOINT rRing1
              {
                OFFSET -8.82822 0.546677 1.51678
                CHANNELS 3 Zrotation Xrotation Yrotation
                JOINT rRing2
                {
                  OFFSET -2.60934 -0.819778 -0.0198488
                  CHANNELS 3 Zrotation Xrotation Yrotation
                  End Site
                  {
                    OFFSET -2.33842 -0.294052 0.168128
                  }
                }
              }
              JOINT rPinky1
              {
                OFFSET -8.27202 -0.0477905 -0.4584
                CHANNELS 3 Zrotation Xrotation Yrotation
                JOINT rPinky2
                {
                  OFFSET -1.82734 -0.647385 -0.700984
                  CHANNELS 3 Zrotation Xrotation Yrotation
                  End Site
                  {
                    OFFSET -1.69225 -0.51767 -0.607171
                  }
                }
              }
            }
          }
        }
      }
      JOINT lCollar
      {
        OFFSET 2.68224 19.2634 -4.8768
        CHANNELS 3 Zrotation Xrotation Yrotation
        JOINT lShldr
        {
          OFFSET 8.77824 -1.95073 1.46304
          CHANNELS 3 Zrotation Xrotation Yrotation
          JOINT lForeArm
          {
            OFFSET 28.1742 -1.7115 0.48768
            CHANNELS 3 Zrotation Xrotation Yrotation
            JOINT lHand
            {
              OFFSET 22.5879 0.773209 7.07136
              CHANNELS 3 Zrotation Xrotation Yrotation
              JOINT lThumb1
              {
                OFFSET 1.2192 -0.487915 3.41376
                CHANNELS 3 Zrotation Xrotation Yrotation
                JOINT lThumb2
                {
                  OFFSET 3.37035 -0.52449 3.41376
                  CHANNELS 3 Zrotation Xrotation Yrotation
                  End Site
                  {
                    OFFSET 1.78271 -1.18214 1.43049
                  }
                }
              }
              JOINT lIndex1
              {
                OFFSET 7.75947 0.938293 5.60832
                CHANNELS 3 Zrotation Xrotation Yrotation
                JOINT lIndex2
                {
                  OFFSET 2.54057 -0.884171 1.56538
                  CHANNELS 3 Zrotation Xrotation Yrotation
                  End Site
                  {
                    OFFSET 1.62519 -0.234802 1.16502
                  }
                }
              }
              JOINT lMid1
              {
                OFFSET 8.24714 1.18213 3.41376
                CHANNELS 3 Zrotation Xrotation Yrotation
                JOINT lMid2
                {
                  OFFSET 3.10165 -0.590103 1.0647
                  CHANNELS 3 Zrotation Xrotation Yrotation
                  End Site
                  {
                    OFFSET 2.48547 -0.328903 0.83742
                  }
                }
              }
              JOINT lRing1
              {
                OFFSET 8.82822 0.546677 1.51678
                CHANNELS 3 Zrotation Xrotation Yrotation
                JOINT lRing2
                {
                  OFFSET 2.60934 -0.819778 -0.0198488
                  CHANNELS 3 Zrotation Xrotation Yrotation
                  End Site
                  {
                    OFFSET 2.33842 -0.294052 0.168128
                  }
                }
              }
              JOINT lPinky1
              {
                OFFSET 8.27202 -0.0477905 -0.4584
                CHANNELS 3 Zrotation Xrotation Yrotation
                JOINT lPinky2
                {
                  OFFSET 1.82734 -0.647385 -0.700984
                  CHANNELS 3 Zrotation Xrotation Yrotation
                  End Site
                  {
                    OFFSET 1.69225 -0.51767 -0.607171
                  }
                }
              }
            }
          }
        }
      }
    }
  }
  JOINT rButtock
  {
    OFFSET -8.77824 4.35084 1.2192
    CHANNELS 3 Zrotation Xrotation Yrotation
    JOINT rThigh
    {
      OFFSET 0 -1.70687 -2.19456
      CHANNELS 3 Zrotation Xrotation Yrotation
      JOINT rShin
      {
        OFFSET 0 -36.8199 0.73152
        CHANNELS 3 Zrotation Xrotation Yrotation
        JOINT rFoot
        {
          OFFSET 0.73152 -45.1104 -5.12064
          CHANNELS 3 Zrotation Xrotation Yrotation
          End Site
          {
            OFFSET -1.1221 -3.69964 12.103
          }
        }
      }
    }
  }
  JOINT lButtock
  {
    OFFSET 8.77824 4.35084 1.2192
    CHANNELS 3 Zrotation Xrotation Yrotation
    JOINT lThigh
    {
      OFFSET 0 -1.70687 -2.19456
      CHANNELS 3 Zrotation Xrotation Yrotation
      JOINT lShin
      {
        OFFSET 0 -36.8199 0.73152
        CHANNELS 3 Zrotation Xrotation Yrotation
        JOINT lFoot
        {
          OFFSET -0.73152 -45.1104 -5.12064
          CHANNELS 3 Zrotation Xrotation Yrotation
          End Site
          {
            OFFSET 1.1221 -3.69964 12.103
          }
        }
      }
    }
  }
}
MOTION
Frames:	8
Frame Time:	0.03333
-16.7881 70.70450000000001 -5.4228 -2.615025 49.78038 7.505377 -1.412064 10.272459 -172.129973 -4.152981 6.866573 176.647879 -16.593536 12.0444 -15.514355 23.161327 -26.737585 -10.436526 -22.268913 5.682381 -28.305047 5.952585 -0.40081 -7.697378 2.269683 -30.431692 -10.046886 95.712844 -15.858211 48.796262 118.694333 -8.670314 -2.25271 -101.175111 50.451276 79.962094 13.672997 -0.951722 -3.83409 26.574939 5.355505 35.531588 -17.240422 -21.304173 21.183784 158.395971 75.900966 -134.117693 97.991623 -45.781017 58.591248 75.604936 -66.308644 113.224963 -107.19532 -2.77307 176.505583 -10.240835 -54.474232 -76.582193 -46.629665 -15.989346 -45.442304 0.796057 -56.666048 -80.562781 12.308446 25.530689 -8.437714 105.489382 -9.910895 -84.247482 177.060084 1.493231 116.661074 13.309956 34.938746 -9.036999 162.638208 -24.515132 -93.19393 163.047389 -0.722801 -128.21462 164.721679 -31.080082 -125.604793 -154.941388 12.297501 -161.603061 162.692359 -27.769638 -131.850019 -2.040252 -16.435633 -57.70733 -38.935082 -38.768572 -23.296804 -164.294717 -2.301961 160.410376 -38.90088 83.590002 5.329407 -7.722515 -53.344323 -38.04347 73.025268 -16.405355 42.555311 -60.58375 -3.33321 -96.304171 -71.78608 -3.746564 32.233326 -57.954919 -34.716282 32.193153 -77.259316 44.275947 -78.18512 126.033823 16.534596 111.091866 87.794366 5.724306 171.38714 -76.095059 73.012686 158.757541
-17.511499999999998 71.34479999999999 -7.074800000000001 -0.969643 54.559949 7.553384 0.09651 17.825905 0.56812 3.696038 -13.020002 0.048005 -12.911009 31.293995 -166.640122 3.349727 51.759319 137.676978 -22.401679 7.300783 -35.715509 3.565298 -0.217784 -6.988818 3.001021 -11.35624 -2.307936 58.618284 5.792287 68.980823 -27.9014 17.5314 104.141504 -14.457786 -38.960667 -12.641648 3.231123 11.517654 0.857062 -46.970586 -13.403259 55.665583 -76.033186 13.997677 37.472845 11.384833 41.824689 39.213015 -80.54144 29.637531 78.003083 62.093542 1.413383 -15.321823 34.34361 2.955314 -1.526232 -163.169543 34.753727 121.39509 82.861157 44.129669 -34.739324 -42.724152 -42.141643 31.01769 77.419867 -85.026456 94.065433 -93.651494 -0.839367 25.611655 171.917099 -38.097096 -84.409588 -160.188273 -38.659628 -143.944721 -3.074634 19.587865 -1.845311 -13.935697 -39.34022 -8.951543 -3.363067 -31.771768 11.062801 73.862988 85.767032 -121.453741 -178.180939 -43.731517 -131.439996 90.945095 46.794412 -43.4886 126.860838 26.675643 -141.045043 -46.074254 -37.887948 -40.182044 -82.498992 80.770307 46.699823 13.511722 -5.212694 -39.305881 -12.300628 -1.292118 -38.072658 42.281856 -26.159146 -180.0 70.066198 -51.004621 104.416752 171.689047 27.89393 -110.743703 175.461758 89.310904 0.0 -175.210865 29.139441 120.162265 83.150807 -36.620359 -127.976376 57.077678 41.680678 10.545023
-17.9026 71.26400000000001 -8.7406 -0.575385 57.62198 7.758169 2.083956 13.507584 -180.0 -2.422883 8.394387 176.957855 -17.385589 30.090941 -132.074609 33.696976 39.630071 94.905149 -16.931108 6.256705 -40.327581 4.484709 -0.18269 -4.663075 1.31807 -0.964814 3.41559 9.469479 5.536986 83.847484 20.073662 -12.327666 94.645465 -23.991289 4.648708 0.861484 -173.068074 -28.126873 89.339956 -18.118605 -12.673055 -28.749981 -9.932329 -27.048699 21.207813 24.072555 76.136279 -17.56818 93.305769 -55.759148 60.07292 124.359784 -69.962089 137.711591 -114.822126 -7.734668 -171.379403 -119.786016 22.665651 -149.904418 -53.146965 -12.539319 -94.01494 86.67783 -0.763088 21.135013 11.142386 35.780737 -5.698503 114.104144 -2.147609 -71.880524 175.176321 5.171559 117.672784 8.724327 37.328701 -7.359736 155.485404 -13.023543 -93.519502 95.58591 4.881859 -76.289503 164.661561 -15.020503 -127.503115 65.109604 83.849978 15.140191 10.761033 -0.962323 -0.279519 57.512576 81.224307 -79.185733 93.073517 55.712225 -95.383317 71.443768 40.358092 -100.079695 49.379759 -40.517931 50.650508 18.741003 -30.083549 57.177337 108.686998 57.618563 56.473967 -140.979929 25.320187 79.235823 75.592543 -14.314009 79.381894 -89.050835 38.065092 -172.91876 174.011728 84.62123 6.014563 -173.507701 27.166352 -85.547125 -91.610767 18.375718 -172.769719 -15.372054 30.141241 -68.964828
-17.625 70.9382 -10.0922 -0.579319 60.793232 7.652427 2.813933 18.372812 -0.0 2.046538 -13.037997 -4.20954 0.056635 18.169874 67.475298 -37.161028 -4.574609 -95.647085 -3.871808 1.359317 -38.678427 6.830563 -0.42617 -7.131897 -155.177612 -4.703177 156.617863 -2.649959 6.232012 -64.149282 -174.127142 2.683314 -93.38951 -16.841924 -13.854619 -5.35467 163.172899 -45.122515 79.135799 -43.117367 34.706489 21.307896 -11.178238 -18.539623 21.608275 15.333677 58.470816 -14.017496 -83.710307 41.05421 77.433805 31.654946 7.258272 3.926006 24.046536 13.03803 -2.844592 -2.17694 -47.984218 37.539442 -13.519064 -22.861191 -69.158774 96.212236 -26.809982 66.737806 10.931768 35.705215 -6.140188 -69.087978 -6.007016 -106.245547 11.920884 -1.691729 -63.238492 1.386209 25.356087 -5.917355 1.964931 18.303416 -3.022278 21.707653 -72.60044 46.026141 94.706526 49.305206 -64.929243 169.336905 2.384579 -53.766174 -172.666464 -63.184573 -155.514727 8.06395 8.829062 30.63264 167.899333 -3.053518 -168.926743 -153.191195 -43.354853 -169.506667 -2.855322 0.799239 7.206814 -21.362114 -32.066291 3.442733 3.71359 2.172521 -0.0 0.057845 -47.557353 -0.0 38.052657 65.364491 68.843747 29.339734 50.505908 -137.563709 58.877073 19.763734 48.16613 -83.980589 -19.012102 -165.138311 -81.297799 -33.866029 86.535815 84.785506 10.717821 -22.8952
-16.5098 70.50750000000001 -11.0772 -0.273306 64.281201 8.141381 3.076568 12.551262 -180.0 -1.016782 7.448652 176.572693 3.752598 18.571956 64.231048 -38.74385 -0.573904 -93.52928 30.07592 -3.57701 -13.259128 9.049348 -1.097042 -13.79629 7.70984 -36.168938 -1.340178 -83.203694 7.363768 133.499222 -131.406133 -75.101179 -48.398768 -12.042334 -22.997259 -7.10264 14.160638 -0.927796 -5.915349 -38.430882 0.838971 37.328648 -65.588739 21.626407 45.30982 -4.295853 40.711412 17.384032 8.314676 -18.274031 12.728493 -153.736619 1.316622 158.238537 17.296563 5.019157 -4.597589 -54.099331 24.358745 40.189989 -120.555155 35.85873 -113.966015 -171.196688 34.382734 -41.726509 3.204666 -7.418461 2.875636 -134.013017 -15.901502 -61.335407 -174.561894 -68.496083 -73.201169 -153.787804 -33.037843 -143.263091 156.535047 -7.633799 -93.045972 -118.944291 -61.258539 -40.637072 -159.143818 -68.303612 -118.685608 9.741966 -13.941667 61.521 97.500747 72.868719 -69.132861 -98.621438 -44.881657 -84.313635 169.599701 -44.149666 172.697624 -14.723144 58.837213 43.586285 117.829 -27.352268 116.084265 46.675334 -21.276778 37.835233 163.645859 71.541803 7.370981 -170.046287 22.819695 -180.0 -53.470622 -70.229292 -5.962051 28.86863 -20.966488 115.707551 -70.730565 42.932713 -61.742765 125.021036 15.58777 0.0 -72.857725 68.143858 153.072503 -81.086811 48.79 1.659051
-14.6042 70.2748 -11.7741 0.513313 68.032335 9.30973 0.768816 13.692287 65.167498 -7.376282 -5.18978 -66.144728 7.056885 16.188739 53.88558 -36.904159 -2.253981 -86.440554 31.137081 8.290425 29.161783 10.477956 -2.161059 -23.246934 -153.405937 -1.565351 159.940111 -4.507394 7.836671 -56.455341 0.591078 -3.980007 -122.690875 -167.451985 1.402982 141.863237 10.457856 -2.306666 -6.69293 -141.025026 -18.240835 91.466927 -139.561819 7.556194 102.575421 -163.088634 -12.196622 110.05916 2.159894 -19.47829 8.356167 -149.881243 -36.938729 150.070261 -53.647315 77.865194 83.621085 -26.936456 10.348102 -35.340752 -12.66296 -25.152493 -59.728649 -55.44528 4.971022 132.49357 170.258937 -75.957066 -169.251504 17.396398 -47.085031 103.281622 -11.131278 -31.853201 92.133726 -155.395648 -30.519204 -145.076953 165.673062 -14.063676 -93.598409 158.454567 -33.429405 -81.207202 19.568083 -0.060573 0.391929 6.933152 55.970483 -50.735739 42.529275 60.3892 -12.042988 -15.915732 -20.697924 -40.012712 168.942904 7.416166 -176.856422 28.38923 29.961197 0.703225 132.364027 -14.651739 126.140902 86.182129 -39.458679 54.429734 106.692652 60.433683 37.758884 -140.458023 13.863674 106.18483 58.182933 -59.244306 -17.666557 128.715706 68.214778 145.865668 0.614114 -10.794805 -0.0 20.804776 -40.050049 14.060214 45.917211 71.483606 18.251708 -122.382497 19.750776 36.864819
-12.2262 70.5411 -12.3007 1.937895 71.512013 11.173665 2.120349 7.696029 164.545551 0.722377 3.304149 -163.314097 13.48854 20.149342 95.300757 -33.634474 26.141186 -121.756198 16.419102 5.088038 34.233904 11.097966 -3.299682 -33.027533 3.468016 0.267985 -1.638202 -170.735937 -16.754781 104.745777 82.7337 -23.518961 -90.716038 -111.08074 59.09928 88.640482 -102.677095 41.441914 63.567015 -50.098404 9.713733 29.214358 -54.680568 39.075691 39.347443 81.957437 -65.682106 46.691527 -51.391914 44.211833 36.110684 -55.801897 37.350333 59.757498 9.721693 -0.530814 -5.241113 142.987098 -37.749818 144.460121 100.649462 54.902749 -37.010462 -111.24141 -32.628421 -16.533449 45.481434 55.360757 -44.579581 27.652154 -36.886486 -63.662161 73.257467 -4.205033 20.08941 -24.585573 -39.193531 -21.752346 -6.405889 0.061433 4.831267 153.998517 -54.484194 -134.322586 89.927032 39.436473 -57.379359 162.649669 -7.417721 -65.926031 139.541289 -85.209676 147.613452 -32.487082 10.744408 31.370048 157.719986 61.262742 -159.277975 -174.723567 -0.357197 -154.28976 136.411545 -16.463209 124.75269 85.468597 -34.45189 45.742606 102.966772 57.166267 37.43577 -135.463715 12.144846 -10.623056 63.702497 49.7324 39.212582 -106.917254 -32.166631 178.68682 175.714136 88.597558 -0.0 -153.261237 32.262475 -59.472583 -64.640365 46.102797 -9.157266 4.568076 17.209279 77.591445
-9.64 71.09649999999999 -12.656 3.616812 74.789567 13.061517 0.174968 7.170945 104.807394 -2.07215 1.343919 -102.15365 14.069271 16.87717 92.980351 -31.016138 22.951827 -119.557776 8.166209 2.046231 28.091386 9.60454 -3.685066 -41.904956 -41.363914 68.970164 47.992136 -46.778823 -14.709158 29.781764 -13.139966 -88.259902 75.913666 -9.838304 -11.885869 -3.854063 -173.486315 -10.962852 94.567317 -88.882489 7.591296 54.662376 -155.237491 -18.485659 127.191387 53.302599 76.822256 -51.796185 -175.145529 -6.843638 134.616825 170.336346 -1.311544 150.10237 -133.648737 -20.033144 -165.596793 -10.80297 -76.243124 -77.14384 18.883685 0.749582 -29.414754 -8.701184 -19.896402 75.888136 -18.781425 -66.704956 -6.531278 81.312328 -25.010379 172.95483 -13.378941 21.566812 99.286968 -160.457173 -27.656678 -146.438082 166.651673 -7.013935 -95.541128 -2.052607 -49.002079 -21.962781 90.695434 35.277415 -59.213738 82.114741 10.284213 -61.220151 43.942689 56.485645 -13.502308 168.799475 7.241918 -102.839782 123.895917 80.395995 -124.063613 62.199953 48.302073 -52.952508 93.845514 -44.961839 80.064777 -14.23795 23.559196 46.609689 -0.542253 8.515538 3.657086 -6.196719 -53.874014 16.012821 59.494432 47.329388 11.39516 -128.508273 81.038302 42.561643 18.012706 -7.123966 26.728192 -12.135033 -41.942468 162.166869 0.727285 -67.392111 156.448719 -150.28933 -50.855108 -21.589781
